grf
version=1
nRows=14
nColumns=37
inDegrees=no
endheader
time	ground_force_1_vx	ground_force_1_vy	ground_force_1_vz	ground_force_1_px	ground_force_1_py	ground_force_1_pz	ground_moment_1_mx	ground_moment_1_my	ground_moment_1_mz	ground_force_2_vx	ground_force_2_vy	ground_force_2_vz	ground_force_2_px	ground_force_2_py	ground_force_2_pz	ground_moment_2_mx	ground_moment_2_my	ground_moment_2_mz	ground_force_3_vx	ground_force_3_vy	ground_force_3_vz	ground_force_3_px	ground_force_3_py	ground_force_3_pz	ground_moment_3_mx	ground_moment_3_my	ground_moment_3_mz	ground_force_4_vx	ground_force_4_vy	ground_force_4_vz	ground_force_4_px	ground_force_4_py	ground_force_4_pz	ground_moment_4_mx	ground_moment_4_my	ground_moment_4_mz
      6.09000000	      0.00000000	     -0.00000000	      0.00000000	      0.00000000	      0.00000000	      0.00000000	      0.00000000	      0.00000000	      0.00000000	     -1.13845062	     28.66151810	   -353.80203247	   -398.23897335	  -1059.43259462	      0.00000000	      0.00000000	     -0.00000000	    -51.97499938	     28.96549368	    -27.29140344	   -448.39517212	   -405.54002217	   -740.98264818	      0.00000000	      0.00000000	      0.00000000	    251.36682286	      0.00000000	     -0.00000000	      0.00000000	      0.00000000	      0.00000000	      0.00000000	      0.00000000	      0.00000000	      0.00000000
      6.10000000	      0.00000000	     -0.00000000	      0.00000000	      0.00000000	      0.00000000	      0.00000000	      0.00000000	      0.00000000	      0.00000000	     -1.76760006	     27.33733749	   -349.12741089	   -398.93233016	  -1059.58935122	      0.00000000	      0.00000000	      0.00000000	     12.06352042	     25.15117193	    -29.87398177	   -460.69900513	   -404.17782668	   -741.28785945	      0.00000000	      0.00000000	      0.00000000	    326.74899351	      0.00000000	     -0.00000000	      0.00000000	      0.00000000	      0.00000000	      0.00000000	      0.00000000	      0.00000000	      0.00000000
      6.11000000	      0.00000000	     -0.00000000	      0.00000000	      0.00000000	      0.00000000	      0.00000000	      0.00000000	      0.00000000	      0.00000000	     -1.87841272	     25.74762535	   -342.91793823	   -398.72943342	  -1060.26993437	      0.00000000	      0.00000000	      0.00000000	     15.11343371	     21.49301252	    -31.66144940	   -474.21664429	   -403.53092993	   -740.51923813	      0.00000000	      0.00000000	      0.00000000	    394.22199942	      0.00000000	     -0.00000000	      0.00000000	      0.00000000	      0.00000000	      0.00000000	      0.00000000	      0.00000000	      0.00000000
      6.12000000	      0.00000000	     -0.00000000	      0.00000000	      0.00000000	      0.00000000	      0.00000000	      0.00000000	      0.00000000	      0.00000000	     -2.57165146	     24.02338028	   -336.93365479	   -398.97419806	  -1058.54185345	      0.00000000	      0.00000000	     -0.00000000	    -93.20115359	     19.41080187	    -32.98179415	   -487.34933472	   -402.58442207	   -739.86463983	      0.00000000	      0.00000000	      0.00000000	    400.42817952	      0.00000000	     -0.00000000	      0.00000000	      0.00000000	      0.00000000	      0.00000000	      0.00000000	      0.00000000	      0.00000000
      6.13000000	      0.00000000	     -0.00000000	      0.00000000	      0.00000000	      0.00000000	      0.00000000	      0.00000000	      0.00000000	      0.00000000	     -2.16185117	     22.67192078	   -334.19055176	   -398.78936578	  -1060.89501875	      0.00000000	      0.00000000	     -0.00000000	    -50.81779969	     18.99368184	    -33.54612517	   -495.52874756	   -402.78401543	   -739.89418375	      0.00000000	      0.00000000	      0.00000000	    386.38060662	      0.00000000	     -0.00000000	      0.00000000	      0.00000000	      0.00000000	      0.00000000	      0.00000000	      0.00000000	      0.00000000
      6.14000000	      0.00000000	     -0.00000000	      0.00000000	      0.00000000	      0.00000000	      0.00000000	      0.00000000	      0.00000000	      0.00000000	     -0.96063811	     21.55656815	   -328.62106323	   -399.17632003	  -1059.47059472	      0.00000000	      0.00000000	      0.00000000	    188.50980926	     19.38593945	    -34.44021394	   -499.73880005	   -402.58470151	   -739.89621404	      0.00000000	      0.00000000	      0.00000000	    604.58466073	      0.00000000	     -0.00000000	      0.00000000	      0.00000000	      0.00000000	      0.00000000	      0.00000000	      0.00000000	      0.00000000
      6.15000000	      0.00000000	     -0.00000000	      0.00000000	      0.00000000	      0.00000000	      0.00000000	      0.00000000	      0.00000000	      0.00000000	      0.24012451	     20.82928085	   -322.56219482	   -399.13754293	  -1059.48579763	      0.00000000	      0.00000000	     -0.00000000	    -18.78486156	     19.90337829	    -34.92839224	   -499.01934814	   -403.53275640	   -740.50789017	      0.00000000	      0.00000000	      0.00000000	    451.60559675	      0.00000000	     -0.00000000	      0.00000000	      0.00000000	      0.00000000	      0.00000000	      0.00000000	      0.00000000	      0.00000000
      6.16000000	      0.00000000	     -0.00000000	      0.00000000	      0.00000000	      0.00000000	      0.00000000	      0.00000000	      0.00000000	      0.00000000	      1.46083319	     19.89650726	   -315.93417358	   -400.80919072	  -1060.03350920	      0.00000000	     -0.00000000	      0.00000000	     12.85361922	     19.74743537	    -35.00209600	   -496.06326294	   -403.17577536	   -739.73666267	      0.00000000	      0.00000000	      0.00000000	    691.77675762	      0.00000000	     -0.00000000	      0.00000000	      0.00000000	      0.00000000	      0.00000000	      0.00000000	      0.00000000	      0.00000000
      6.17000000	      0.00000000	     -0.00000000	      0.00000000	      0.00000000	      0.00000000	      0.00000000	      0.00000000	      0.00000000	      0.00000000	      2.31947327	     19.38188553	   -310.79833984	   -400.56346198	  -1058.79766698	      0.00000000	      0.00000000	     -0.00000000	     -9.68504057	     18.76569062	    -34.81915447	   -493.35125732	   -403.58255307	   -739.39012071	      0.00000000	      0.00000000	      0.00000000	    660.52764924	      0.00000000	     -0.00000000	      0.00000000	      0.00000000	      0.00000000	      0.00000000	      0.00000000	      0.00000000	      0.00000000
      6.18000000	      0.00000000	     -0.00000000	      0.00000000	      0.00000000	      0.00000000	      0.00000000	      0.00000000	      0.00000000	      0.00000000	      2.93549776	     18.79807281	   -306.95983887	   -401.05207199	  -1057.55414049	      0.00000000	      0.00000000	     -0.00000000	   -288.21853154	     17.42210467	    -34.58152923	   -491.79425049	   -403.83507520	   -741.03109129	      0.00000000	      0.00000000	      0.00000000	    693.44392595	      0.00000000	     -0.00000000	      0.00000000	      0.00000000	      0.00000000	      0.00000000	      0.00000000	      0.00000000	      0.00000000
      6.19000000	      0.00000000	     -0.00000000	      0.00000000	      0.00000000	      0.00000000	      0.00000000	      0.00000000	      0.00000000	      0.00000000	      4.49838305	     18.04446602	   -304.98846436	   -400.90005085	  -1058.25696072	      0.00000000	      0.00000000	      0.00000000	    109.95947468	     15.59282861	    -34.34457152	   -496.41384888	   -403.06037721	   -739.86867304	      0.00000000	      0.00000000	      0.00000000	    837.92234088	      0.00000000	     -0.00000000	      0.00000000	      0.00000000	      0.00000000	      0.00000000	      0.00000000	      0.00000000	      0.00000000
      6.20000000	      0.00000000	     -0.00000000	      0.00000000	      0.00000000	      0.00000000	      0.00000000	      0.00000000	      0.00000000	      0.00000000	      6.08627319	     17.74752235	   -304.44110107	   -400.97039132	  -1060.27450745	      0.00000000	      0.00000000	     -0.00000000	    -93.99109749	     14.08486644	    -33.72692613	   -497.19189453	   -403.12995921	   -740.26508724	      0.00000000	      0.00000000	      0.00000000	    879.64556947	      0.00000000	     -0.00000000	      0.00000000	      0.00000000	      0.00000000	      0.00000000	      0.00000000	      0.00000000	      0.00000000
      6.21000000	      0.00000000	     -0.00000000	      0.00000000	      0.00000000	      0.00000000	      0.00000000	      0.00000000	      0.00000000	      0.00000000	      7.28552628	     17.76665878	   -298.51556396	   -402.62352268	  -1058.57091639	      0.00000000	      0.00000000	      0.00000000	     25.25442206	     13.12919328	    -33.06086464	   -498.55444336	   -403.29204498	   -740.79630982	      0.00000000	      0.00000000	      0.00000000	   1057.74652346	      0.00000000	     -0.00000000	      0.00000000	      0.00000000	      0.00000000	      0.00000000	      0.00000000	      0.00000000	      0.00000000
      6.22000000	      0.00000000	     -0.00000000	      0.00000000	      0.00000000	      0.00000000	      0.00000000	      0.00000000	      0.00000000	      0.00000000	      8.12855434	     16.97414780	   -294.00170898	   -402.70996844	  -1057.14724916	      0.00000000	      0.00000000	     -0.00000000	   -154.76510491	     12.77435019	    -32.43386571	   -500.37026978	   -403.39174094	   -739.89503097	      0.00000000	      0.00000000	      0.00000000	    999.54811202	      0.00000000	     -0.00000000	      0.00000000	      0.00000000	      0.00000000	      0.00000000	      0.00000000	      0.00000000	      0.00000000
